# ProBuilder 4.2.3
# https://unity3d.com/unity/features/worldbuilding/probuilder
# 15.01.2021 19:08:36

mtllib ./Arena.mtl
o Arena

g OuterBorder
v 4.076374 11.44877 1.076638
v -0.7763742 11.44877 1.076638
v 4.076374 17.49014 1.076638
v -0.7763742 17.49014 1.076638
v -20.18861 11.44877 1.076638
v -20.18861 11.44877 -1.076638
v -20.18861 17.49014 1.076638
v -20.18861 17.49014 -1.076638
v -0.7763742 11.44877 -1.076638
v 4.076374 11.44877 -1.076638
v -0.7763742 17.49014 -1.076638
v 4.076374 17.49014 -1.076638
v 23.48861 11.44877 -1.076638
v 23.48861 11.44877 1.076638
v 23.48861 17.49014 -1.076638
v 23.48861 17.49014 1.076638
v -3.473141 11.44877 1.076638
v -3.473141 11.44877 -1.076638
v -3.473141 16.3406 1.076638
v -3.473141 16.3406 -1.076638
v 6.773141 11.44877 -1.076638
v 6.773141 11.44877 1.076638
v 6.773141 16.3406 -1.076638
v 6.773141 16.3406 1.076638
v 15.41646 11.44877 -1.076638
v 15.41646 11.44877 1.076638
v 15.07153 16.3406 -1.076638
v 15.07153 16.3406 1.076638
v -12.11646 11.44877 1.076638
v -12.11646 11.44877 -1.076638
v -11.77153 16.3406 1.076638
v -11.77153 16.3406 -1.076638
v 18.79826 11.44877 -1.076638
v 18.79826 11.44877 1.076638
v 18.3686 17.49014 -1.076638
v 18.3686 17.49014 1.076638
v -15.49826 11.44877 1.076638
v -15.49826 11.44877 -1.076638
v -15.0686 17.49014 1.076638
v -15.0686 17.49014 -1.076638
v 21.35926 11.44877 -1.076638
v 21.35926 11.44877 1.076638
v 21.35926 17.49014 -1.076638
v 21.35926 17.49014 1.076638
v -18.05926 11.44877 1.076638
v -18.05926 11.44877 -1.076638
v -18.05926 17.49014 1.076638
v -18.05926 17.49014 -1.076638
v 21.35926 38.74585 1.076638
v 21.35926 38.74585 -1.076638
v 23.48861 38.74585 1.076638
v 23.48861 38.74585 -1.076638
v -18.05926 38.74585 -1.076638
v -18.05926 38.74585 1.076638
v -20.18861 38.74585 -1.076638
v -20.18861 38.74585 1.076638

vt 3.380488 -8.166016
vt -3.380488 -8.166016
vt 3.380488 0.2509766
vt -3.380488 0.2509766
vt 1.5 -8.166016
vt -1.5 -8.166016
vt 1.5 0.2509766
vt -1.5 0.2509766
vt -3.380488 1.5
vt 3.380488 1.5
vt -3.380488 -1.5
vt 3.380488 -1.5
vt -7.137695 1.5
vt -7.137695 -1.5
vt -7.137695 -1.350586
vt -7.137695 -8.166016
vt 7.137695 -8.166016
vt 7.137695 -1.350586
vt 3.011337 -1.5
vt 3.011337 1.5
vt 7.095649 -1.5
vt 7.095649 1.5
vt 7.137695 -1.5
vt 7.137695 1.5
vt -3.011337 1.5
vt -3.011337 -1.5
vt -7.095649 1.5
vt -7.095649 -1.5
vt 19.1798 -1.5
vt 19.1798 1.5
vt -18.69923 -1.350586
vt -19.1798 -8.166016
vt 19.1798 -8.166016
vt 18.69923 -1.350586
vt -18.69923 1.5
vt -18.69923 -1.5
vt -19.1798 1.5
vt -19.1798 -1.5
vt 18.69923 -1.5
vt 18.69923 1.5
vt 23.89141 -1.5
vt 23.89141 1.5
vt -23.29279 0.2509766
vt -23.89141 -8.166016
vt 23.89141 -8.166016
vt 23.29279 0.2509766
vt -17.21218 1.5
vt -17.21218 -1.5
vt -22.07693 1.5
vt -22.07693 -1.5
vt -23.89141 1.5
vt -23.89141 -1.5
vt 17.21218 -1.5
vt 17.21218 1.5
vt 22.07693 -1.5
vt 22.07693 1.5
vt 27.45946 -1.5
vt 27.45946 1.5
vt -27.45946 0.2509766
vt -27.45946 -8.166016
vt 27.45946 -8.166016
vt 27.45946 0.2509766
vt -23.29279 1.5
vt -23.29279 -1.5
vt -27.45946 1.5
vt -27.45946 -1.5
vt 23.29279 -1.5
vt 23.29279 1.5
vt 30.42612 -1.5
vt 30.42612 1.5
vt -30.42612 0.2509766
vt -30.42612 -8.166016
vt 30.42612 -8.166016
vt 30.42612 0.2509766
vt -30.42612 1.5
vt -30.42612 -1.5
vt 1.5 29.86499
vt -1.5 29.86499
vt 30.42612 29.86499
vt 27.45946 29.86499
vt -27.45946 29.86499
vt -30.42612 29.86499

vn 0 0 0.7177585
vn -0.7177585 0 0
vn 0 0 -0.7177585
vn 0.7177585 0 0
vn 0 0.7177585 0
vn 0 -0.7177585 0
vn -0.2814513 0.6602745 0
vn 0.2814513 0.6602745 0
vn -0.2362988 0.6777464 0
vn 0.2362988 0.6777464 0

usemtl ProBuilderDefault
f 3/3/1 4/4/1 2/2/1 1/1/1
f 7/7/2 8/8/2 6/6/2 5/5/2
f 11/3/3 12/4/3 10/2/3 9/1/3
f 15/7/4 16/8/4 14/6/4 13/5/4
f 12/11/5 11/12/5 4/10/5 3/9/5
f 1/10/6 2/9/6 9/11/6 10/12/6
f 17/13/6 18/14/6 9/11/6 2/9/6
f 19/15/1 17/16/1 2/2/1 4/4/1
f 18/17/3 20/18/3 11/3/3 9/1/3
f 20/21/7 19/22/7 4/20/7 11/19/7
f 21/23/6 22/24/6 1/10/6 10/12/6
f 23/15/3 21/16/3 10/2/3 12/4/3
f 22/17/1 24/18/1 3/3/1 1/1/1
f 24/27/8 23/28/8 12/26/8 3/25/8
f 25/29/6 26/30/6 22/24/6 21/23/6
f 27/31/3 25/32/3 21/16/3 23/15/3
f 26/33/1 28/34/1 24/18/1 22/17/1
f 28/35/5 27/36/5 23/14/5 24/13/5
f 29/37/6 30/38/6 18/14/6 17/13/6
f 31/31/1 29/32/1 17/16/1 19/15/1
f 30/33/3 32/34/3 20/18/3 18/17/3
f 32/39/5 31/40/5 19/24/5 20/23/5
f 33/41/6 34/42/6 26/30/6 25/29/6
f 35/43/3 33/44/3 25/32/3 27/31/3
f 34/45/1 36/46/1 28/34/1 26/33/1
f 36/49/9 35/50/9 27/48/9 28/47/9
f 37/51/6 38/52/6 30/38/6 29/37/6
f 39/43/1 37/44/1 29/32/1 31/31/1
f 38/45/3 40/46/3 32/34/3 30/33/3
f 40/55/10 39/56/10 31/54/10 32/53/10
f 41/57/6 42/58/6 34/42/6 33/41/6
f 43/59/3 41/60/3 33/44/3 35/43/3
f 42/61/1 44/62/1 36/46/1 34/45/1
f 44/65/5 43/66/5 35/64/5 36/63/5
f 45/65/6 46/66/6 38/52/6 37/51/6
f 47/59/1 45/60/1 37/44/1 39/43/1
f 46/61/3 48/62/3 40/46/3 38/45/3
f 48/57/5 47/58/5 39/68/5 40/67/5
f 13/69/6 14/70/6 42/58/6 41/57/6
f 15/71/3 13/72/3 41/60/3 43/59/3
f 14/73/1 16/74/1 44/62/1 42/61/1
f 51/75/5 52/76/5 50/66/5 49/65/5
f 5/75/6 6/76/6 46/66/6 45/65/6
f 7/71/1 5/72/1 45/60/1 47/59/1
f 6/73/3 8/74/3 48/62/3 46/61/3
f 55/69/5 56/70/5 54/58/5 53/57/5
f 49/77/2 50/78/2 43/8/2 44/7/2
f 51/79/1 49/80/1 44/62/1 16/74/1
f 50/81/3 52/82/3 15/71/3 43/59/3
f 52/77/4 51/78/4 16/8/4 15/7/4
f 53/77/4 54/78/4 47/8/4 48/7/4
f 55/79/3 53/80/3 48/62/3 8/74/3
f 54/81/1 56/82/1 7/71/1 47/59/1
f 56/77/2 55/78/2 8/8/2 7/7/2

g GoThrough_1
v 5.470793 24.3557 1.076638
v -2.170793 24.3557 1.076638
v 5.470793 24.74866 1.076638
v -2.170793 24.74866 1.076638
v -2.170793 24.3557 -1.076638
v -2.170793 24.74866 -1.076638
v 5.470793 24.3557 -1.076638
v 5.470793 24.74866 -1.076638

vt 3.942549 -0.2737408
vt -3.942549 -0.2737408
vt 3.942549 0.2737408
vt -3.942549 0.2737408
vt 1.5 -0.2737408
vt -1.5 -0.2737408
vt 1.5 0.2737408
vt -1.5 0.2737408
vt -3.942549 1.5
vt 3.942549 1.5
vt -3.942549 -1.5
vt 3.942549 -1.5

vn 0 0 0.7177585
vn -0.9691175 0 0
vn 0 0 -0.7177585
vn 0.9691175 0 0
vn 0 0.7177585 0
vn 0 -0.7177585 0

usemtl ProBuilderDefault
f 59/85/11 60/86/11 58/84/11 57/83/11
f 60/89/12 62/90/12 61/88/12 58/87/12
f 62/85/13 64/86/13 63/84/13 61/83/13
f 64/89/14 59/90/14 57/88/14 63/87/14
f 64/93/15 62/94/15 60/92/15 59/91/15
f 57/92/16 58/91/16 61/93/16 63/94/16

g GoThrough_2
v 13.0929 20.05357 1.076638
v 7.433304 20.05357 1.076638
v 13.0929 20.44653 1.076638
v 7.433304 20.44653 1.076638
v 7.433304 20.05357 -1.076638
v 7.433304 20.44653 -1.076638
v 13.0929 20.05357 -1.076638
v 13.0929 20.44653 -1.076638

vt 3.942549 -0.2737408
vt -3.942549 -0.2737408
vt 3.942549 0.2737408
vt -3.942549 0.2737408
vt 1.5 -0.2737408
vt -1.5 -0.2737408
vt 1.5 0.2737408
vt -1.5 0.2737408
vt -3.942549 1.5
vt 3.942549 1.5
vt -3.942549 -1.5
vt 3.942549 -1.5

vn 0 0 0.7177585
vn -0.7177585 0 0
vn 0 0 -0.7177585
vn 0.7177585 0 0
vn 0 0.7177585 0
vn 0 -0.7177585 0

usemtl ProBuilderDefault
f 67/97/17 68/98/17 66/96/17 65/95/17
f 68/101/18 70/102/18 69/100/18 66/99/18
f 70/97/19 72/98/19 71/96/19 69/95/19
f 72/101/20 67/102/20 65/100/20 71/99/20
f 72/105/21 70/106/21 68/104/21 67/103/21
f 65/104/22 66/103/22 69/105/22 71/106/22

g GoThrough_3
v -4.133304 20.05357 1.076638
v -9.792899 20.05357 1.076638
v -4.133304 20.44653 1.076638
v -9.792899 20.44653 1.076638
v -9.792899 20.05357 -1.076638
v -9.792899 20.44653 -1.076638
v -4.133304 20.05357 -1.076638
v -4.133304 20.44653 -1.076638

vt 3.942549 -0.2737408
vt -3.942549 -0.2737408
vt 3.942549 0.2737408
vt -3.942549 0.2737408
vt 1.5 -0.2737408
vt -1.5 -0.2737408
vt 1.5 0.2737408
vt -1.5 0.2737408
vt -3.942549 1.5
vt 3.942549 1.5
vt -3.942549 -1.5
vt 3.942549 -1.5

vn 0 0 0.7177585
vn -0.7177585 0 0
vn 0 0 -0.7177585
vn 0.7177585 0 0
vn 0 0.7177585 0
vn 0 -0.7177585 0

usemtl ProBuilderDefault
f 75/109/23 76/110/23 74/108/23 73/107/23
f 76/113/24 78/114/24 77/112/24 74/111/24
f 78/109/25 80/110/25 79/108/25 77/107/25
f 80/113/26 75/114/26 73/112/26 79/111/26
f 80/117/27 78/118/27 76/116/27 75/115/27
f 73/116/28 74/115/28 77/117/28 79/118/28

g Solid_1
v 18.48936 20.6838 1.076638
v 17.56627 20.6838 1.076638
v 18.48936 24.08681 1.076638
v 17.56627 24.08681 1.076638
v 17.56627 20.6838 -1.076638
v 17.56627 24.08681 -1.076638
v 18.48936 20.6838 -1.076638
v 18.48936 24.08681 -1.076638
v 18.48936 25.01981 1.076638
v 17.56627 25.01981 1.076638
v 18.48936 25.01981 -1.076638
v 17.56627 25.01981 -1.076638
v 15.19229 24.08681 1.076638
v 15.19229 24.08681 -1.076638
v 15.19229 25.01981 1.076638
v 15.19229 25.01981 -1.076638

vt 0.5636311 -2.499529
vt -0.5636311 -2.499529
vt 0.5636325 2.241634
vt -0.5636309 2.241634
vt 1.5 -2.499529
vt -1.5 -2.499529
vt 1.5 2.241634
vt -1.5 2.241634
vt -0.5636325 1.5
vt 0.5636292 1.5
vt -0.5636325 -1.5
vt 0.5636292 -1.5
vt 0.5636325 3.541512
vt -0.5636292 3.541512
vt 1.5 3.541512
vt -1.5 3.541512
vt -3.462689 1.5
vt -3.462689 -1.5
vt -3.462687 3.541512
vt -3.462689 2.241635
vt 3.462689 2.241635
vt 3.462687 3.541512
vt 3.462688 -1.5
vt 3.462688 1.5

vn 0 0 0.7177585
vn -0.8188784 2.70704E-08 0
vn 0 0 -0.7177585
vn 0.8188784 -2.255867E-07 0
vn 0 0.7177585 0
vn 0 -0.7177585 0

usemtl ProBuilderDefault
f 83/121/29 84/122/29 82/120/29 81/119/29
f 84/125/30 86/126/30 85/124/30 82/123/30
f 86/121/31 88/122/31 87/120/31 85/119/31
f 88/125/32 83/126/32 81/124/32 87/123/32
f 91/129/33 92/130/33 90/128/33 89/127/33
f 81/128/34 82/127/34 85/129/34 87/130/34
f 89/131/29 90/132/29 84/122/29 83/121/29
f 91/133/32 89/134/32 83/126/32 88/125/32
f 95/133/30 96/134/30 94/126/30 93/125/30
f 92/131/31 91/132/31 88/122/31 86/121/31
f 93/135/34 94/136/34 86/129/34 84/127/34
f 95/137/29 93/138/29 84/122/29 90/132/29
f 94/139/31 96/140/31 92/131/31 86/121/31
f 96/141/33 95/142/33 90/128/33 92/130/33

g Solid_2
v -14.26627 20.6838 1.076638
v -15.18936 20.6838 1.076638
v -14.26627 24.08681 1.076638
v -15.18936 24.08681 1.076638
v -15.18936 20.6838 -1.076638
v -15.18936 24.08681 -1.076638
v -14.26627 20.6838 -1.076638
v -14.26627 24.08681 -1.076638
v -14.26627 25.01981 1.076638
v -15.18936 25.01981 1.076638
v -14.26627 25.01981 -1.076638
v -15.18936 25.01981 -1.076638
v -11.89229 24.08681 -1.076638
v -11.89229 24.08681 1.076638
v -11.89229 25.01981 -1.076638
v -11.89229 25.01981 1.076638

vt 0.5636311 -2.499529
vt -0.5636311 -2.499529
vt 0.5636309 2.241634
vt -0.5636325 2.241634
vt 1.5 -2.499529
vt -1.5 -2.499529
vt 1.5 2.241635
vt -1.5 2.241635
vt -0.5636292 1.5
vt 0.5636325 1.5
vt -0.5636292 -1.5
vt 0.5636325 -1.5
vt 0.5636292 3.541512
vt -0.5636325 3.541512
vt 1.5 3.541508
vt -1.5 3.541508
vt 3.462689 -1.5
vt 3.462689 1.5
vt -3.462687 3.541512
vt -3.462689 2.241635
vt 3.462689 2.241635
vt 3.462687 3.541512
vt -3.462688 1.5
vt -3.462688 -1.5

vn 0 0 0.7177585
vn -0.8188784 -2.255867E-07 0
vn 0 0 -0.7177585
vn 0.8188784 2.70704E-08 0
vn 0 0.7177585 0
vn 0 -0.7177585 0

usemtl ProBuilderDefault
f 99/145/35 100/146/35 98/144/35 97/143/35
f 100/149/36 102/150/36 101/148/36 98/147/36
f 102/145/37 104/146/37 103/144/37 101/143/37
f 104/149/38 99/150/38 97/148/38 103/147/38
f 107/153/39 108/154/39 106/152/39 105/151/39
f 97/152/40 98/151/40 101/153/40 103/154/40
f 105/155/35 106/156/35 100/146/35 99/145/35
f 111/157/38 112/158/38 110/150/38 109/149/38
f 106/157/36 108/158/36 102/150/36 100/149/36
f 108/155/37 107/156/37 104/146/37 102/145/37
f 109/159/40 110/160/40 99/152/40 104/154/40
f 111/161/37 109/162/37 104/146/37 107/156/37
f 110/163/35 112/164/35 105/155/35 99/145/35
f 112/165/39 111/166/39 107/153/39 105/151/39

